<?xml version="1.0" standalone="no"?>
<!DOCTYPE svg PUBLIC "-//W3C//DTD SVG 20010904//EN"
 "http://www.w3.org/TR/2001/REC-SVG-20010904/DTD/svg10.dtd">
<svg version="1.0" xmlns="http://www.w3.org/2000/svg"
 width="1280.000000pt" height="1244.000000pt" viewBox="0 0 1280.000000 1244.000000"
 preserveAspectRatio="xMidYMid meet">
<metadata>
Created by potrace 1.15, written by Peter Selinger 2001-2017
</metadata>
<g transform="translate(0.000000,1244.000000) scale(0.100000,-0.100000)"
fill="#ff0550" stroke="none">
<path d="M2151 12424 c-86 -23 -150 -63 -232 -144 -91 -90 -141 -176 -171
-291 -21 -83 -21 -86 -4 -204 10 -66 24 -154 31 -195 24 -127 12 -452 -18
-488 -7 -10 -23 -12 -48 -8 -53 8 -65 1 -100 -60 -50 -88 -114 -159 -186 -207
-82 -53 -120 -68 -255 -102 -200 -51 -363 -135 -528 -272 -185 -154 -316 -331
-364 -492 -8 -29 -34 -159 -56 -287 -36 -211 -97 -533 -164 -874 -45 -234 -51
-282 -50 -475 0 -173 3 -205 33 -360 18 -93 45 -201 61 -240 16 -39 40 -134
54 -215 66 -372 84 -454 102 -467 29 -21 43 -15 76 32 19 26 39 44 48 43 9 -2
27 -36 45 -83 l30 -80 -3 -248 c-3 -206 -1 -257 13 -305 21 -72 65 -141 120
-190 45 -39 198 -125 272 -154 66 -25 113 -65 136 -117 19 -43 20 -59 14 -346
-6 -317 -15 -445 -48 -665 -186 -1262 -184 -1230 -184 -2395 0 -846 1 -903 18
-928 11 -18 26 -27 43 -27 14 0 34 -5 45 -10 17 -10 19 -22 19 -147 0 -118 3
-143 21 -180 32 -65 90 -96 194 -101 109 -6 161 12 268 92 130 97 152 104 432
147 224 34 255 54 255 168 0 85 -16 111 -69 111 -21 0 -58 -7 -82 -16 -24 -9
-69 -16 -99 -17 -114 -1 -242 92 -303 221 l-32 67 2 280 c3 417 37 794 109
1190 43 235 92 435 193 793 98 343 132 474 165 627 45 214 94 350 145 402 34
35 59 29 116 -29 131 -137 354 -707 449 -1153 56 -262 85 -507 166 -1425 22
-250 44 -492 49 -537 11 -89 34 -144 76 -183 43 -39 58 -83 45 -130 -14 -54
11 -111 82 -186 87 -92 108 -99 278 -98 80 1 188 7 240 13 180 22 230 25 230
12 0 -6 -3 -11 -7 -11 -5 0 -21 -13 -38 -28 -16 -15 -64 -55 -105 -89 -201
-164 -235 -239 -169 -371 36 -72 149 -197 219 -242 128 -82 652 -251 1050
-339 479 -105 603 -114 1070 -75 426 35 531 8 790 -205 41 -34 104 -76 140
-94 58 -29 73 -32 155 -32 90 0 90 0 220 62 149 72 214 89 381 102 125 9 169
23 230 74 69 57 84 58 336 17 427 -69 526 -82 695 -87 123 -4 185 -2 217 7 86
24 160 110 210 244 37 97 86 173 153 237 78 75 119 99 308 184 184 83 245 116
367 197 196 131 453 360 556 497 107 142 178 310 201 475 13 94 14 1301 1
1766 -4 173 -15 601 -24 950 -25 982 -34 1109 -96 1420 -37 184 -81 338 -163
565 -73 202 -97 284 -127 430 -58 281 -82 577 -61 751 32 254 120 496 265 729
61 96 96 135 125 135 17 0 19 -19 24 -282 8 -386 24 -493 96 -643 44 -94 125
-187 215 -248 97 -66 316 -157 508 -212 126 -36 223 -84 310 -154 118 -94 113
-86 110 -215 -4 -131 14 -225 63 -332 17 -38 44 -80 60 -92 32 -25 83 -29 91
-7 3 8 -20 92 -52 187 -69 206 -74 257 -31 328 14 25 36 64 47 86 25 52 51 76
58 54 2 -8 35 -45 71 -81 102 -101 153 -120 167 -60 11 42 24 51 74 51 58 0
74 15 64 64 -9 50 5 62 78 70 98 12 125 38 73 72 -34 22 -32 51 10 120 19 32
35 68 35 80 0 31 -40 60 -103 74 -97 22 -117 31 -117 50 0 11 36 60 80 110 44
50 80 97 80 104 0 21 -27 38 -48 32 -11 -4 -27 -3 -37 0 -16 6 -17 17 -12 91
l6 83 -34 32 c-39 34 -55 79 -55 149 0 63 -17 77 -76 61 -58 -16 -78 -5 -98
54 -16 49 -41 84 -60 84 -5 0 -22 -12 -37 -26 l-26 -25 -47 40 c-26 23 -56 41
-66 41 -10 0 -42 -23 -69 -51 -60 -61 -72 -61 -195 -6 -44 20 -83 34 -88 31
-4 -3 -8 -22 -8 -43 l0 -37 -77 -25 c-93 -29 -103 -43 -81 -102 9 -24 13 -49
9 -55 -4 -7 -29 -16 -55 -21 -75 -14 -83 -37 -31 -86 l36 -32 -26 -17 c-31
-20 -32 -42 -2 -86 20 -29 22 -38 13 -62 -10 -27 -7 -31 49 -83 33 -30 88 -69
123 -86 73 -35 76 -51 5 -24 -194 73 -307 173 -358 315 -33 91 -77 281 -112
480 l-37 205 -3 394 c-3 430 -6 458 -62 570 -17 32 -55 86 -86 119 -30 33 -55
68 -55 78 1 11 9 44 20 74 31 87 26 172 -19 356 -22 88 -49 215 -60 282 -25
146 -48 207 -131 337 -189 299 -524 682 -625 715 -57 19 -333 7 -460 -20 -127
-27 -291 -81 -367 -122 -108 -57 -129 -122 -87 -263 31 -108 29 -214 -10 -362
-41 -162 -41 -173 12 -226 23 -24 57 -72 76 -108 44 -84 68 -109 103 -109 35
0 44 -30 28 -88 -17 -63 -28 -70 -109 -64 -51 3 -81 0 -110 -12 -23 -9 -100
-23 -173 -31 -155 -18 -246 -38 -329 -70 -147 -58 -176 -82 -548 -446 -196
-191 -378 -365 -404 -387 -39 -31 -820 -462 -1318 -726 -164 -86 -218 -97
-484 -94 l-220 3 -58 -29 -59 -28 -146 26 c-81 14 -208 35 -282 46 -350 53
-689 148 -950 267 -167 76 -348 221 -471 378 -192 243 -417 602 -459 731 -52
158 -124 259 -262 368 -643 506 -713 564 -723 596 -11 35 56 145 194 318 44
55 86 113 95 130 22 43 83 281 97 381 14 103 7 305 -15 386 -40 146 -108 233
-229 291 -129 61 -288 80 -406 48z m6688 -3201 c-16 -275 -17 -340 -5 -598 13
-284 -10 -386 -160 -717 -197 -433 -258 -632 -253 -813 6 -223 3 -267 -23
-335 -44 -115 -476 -855 -726 -1244 -390 -609 -711 -1038 -1147 -1536 -99
-113 -358 -410 -575 -660 -674 -778 -716 -823 -915 -982 -110 -88 -273 -190
-438 -274 -84 -42 -176 -95 -205 -117 l-52 -40 -143 6 c-144 6 -268 27 -320
53 -48 25 -52 47 -37 222 17 209 5 749 -35 1547 -9 165 -20 455 -25 645 -10
359 -26 571 -61 800 -60 399 -153 749 -304 1145 -80 209 -77 197 -76 333 1
123 1 123 -45 245 -52 136 -99 234 -152 317 -51 79 -115 213 -145 300 -52 152
-62 228 -61 455 0 225 13 312 81 568 39 147 54 145 147 -16 130 -226 207 -280
586 -409 378 -128 766 -215 1195 -267 242 -30 441 -44 514 -37 86 8 169 -6
248 -44 108 -50 116 -47 266 99 102 99 117 123 117 185 0 59 11 66 192 121
1208 365 1240 376 1523 515 244 120 433 257 865 628 96 82 177 148 179 146 2
-2 -2 -111 -10 -241z m-8328 -758 c-16 -145 -52 -328 -63 -317 -16 16 -22 177
-8 259 6 43 26 121 43 173 l32 95 3 -55 c2 -30 -2 -100 -7 -155z m11644 -1845
c3 -5 1 -10 -4 -10 -6 0 -11 5 -11 10 0 6 2 10 4 10 3 0 8 -4 11 -10z"/>
</g>
</svg>
