<?xml version="1.0" encoding="iso-8859-1"?>
<!-- Generator: Adobe Illustrator 19.0.0, SVG Export Plug-In . SVG Version: 6.00 Build 0)  -->
<svg version="1.1" id="Capa_1" xmlns="http://www.w3.org/2000/svg" xmlns:xlink="http://www.w3.org/1999/xlink" x="0px" y="0px"
	 viewBox="0 0 512 512" style="enable-background:new 0 0 512 512;" xml:space="preserve">
<path style="fill:#A2A7B2;" d="M303.761,358.954v73.126c0,4.209-3.409,7.618-7.619,7.618h-80.284c-4.209,0-7.629-3.409-7.629-7.618
	v-73.126c0-4.209,3.419-7.629,7.629-7.629h80.284C300.351,351.326,303.761,354.745,303.761,358.954z"/>
<path style="fill:#989CA6;" d="M303.761,358.954v73.126c0,4.209-3.409,7.618-7.619,7.618H256v-88.373h40.142
	C300.351,351.326,303.761,354.745,303.761,358.954z"/>
<path style="fill:#5C5F65;" d="M384.025,467.723c-2.44,5.679-7.968,9.078-13.777,9.078c-1.98,0-3.989-0.39-5.919-1.22l-0.19-0.08
	c-34.323-14.717-70.676-22.186-108.029-22.186H256c-37.383,0.01-73.756,7.499-108.109,22.266c-7.609,3.269-16.427-0.25-19.696-7.858
	c-3.269-7.618,0.24-16.437,7.858-19.706c38.113-16.377,78.465-24.685,119.947-24.695h0.11c41.452,0,81.774,8.278,119.867,24.615
	l0.2,0.08C383.785,451.286,387.304,460.114,384.025,467.723z"/>
<path style="fill:#E7EEFD;" d="M512,53.574v294.383c0,10.128-8.238,18.366-18.376,18.366H18.366C8.238,366.323,0,358.084,0,347.956
	V53.574c0-10.128,8.238-18.376,18.366-18.376h475.257C503.762,35.197,512,43.446,512,53.574z"/>
<path style="fill:#DBE2F1;" d="M512,53.574v294.383c0,10.128-8.238,18.366-18.376,18.366H256V35.197h237.624
	C503.762,35.197,512,43.446,512,53.574z"/>
<g>
	<path style="fill:#00A5FF;" d="M303.224,310.585c-8.282,0-14.997-6.715-14.997-14.997v-57.882c0-8.282,6.715-14.997,14.997-14.997
		s14.997,6.715,14.997,14.997v57.882C318.221,303.871,311.506,310.585,303.224,310.585z"/>
	<path style="fill:#00A5FF;" d="M350.215,310.585c-8.282,0-14.997-6.715-14.997-14.997V137.726c0-8.282,6.715-14.997,14.997-14.997
		s14.997,6.715,14.997,14.997v157.862C365.212,303.871,358.497,310.585,350.215,310.585z"/>
	<path style="fill:#00A5FF;" d="M397.981,310.585c-8.282,0-14.997-6.715-14.997-14.997v-117.87c0-8.282,6.715-14.997,14.997-14.997
		s14.997,6.715,14.997,14.997v117.87C412.978,303.871,406.264,310.585,397.981,310.585z"/>
</g>
<path style="fill:#FFB83B;" d="M140.433,285.778L25.605,400.606c-2.929,2.929-6.769,4.399-10.608,4.399
	c-3.299,0-6.589-1.08-9.308-3.239c-0.45-0.36-0.88-0.74-1.3-1.16c-5.849-5.849-5.849-15.347,0-21.206l114.838-114.838
	c5.859-5.849,15.357-5.849,21.206,0c0.06,0.06,0.11,0.11,0.16,0.17C146.291,270.601,146.231,279.979,140.433,285.778z"/>
<path style="fill:#FF9800;" d="M140.433,285.778L25.605,400.606c-2.929,2.929-6.769,4.399-10.608,4.399
	c-3.299,0-6.589-1.08-9.308-3.239l134.904-137.033C146.291,270.601,146.231,279.979,140.433,285.778z"/>
<g>
	<path style="fill:#00A5FF;" d="M264.618,220.471c0,48.391-39.362,87.753-87.753,87.753c-22.086,0-42.282-8.198-57.719-21.706
		c-0.44-0.38-0.87-0.77-1.3-1.17c-17.637-16.057-28.724-39.202-28.724-64.877c0-48.381,39.362-87.743,87.743-87.743
		c25.815,0,49.07,11.208,65.127,29.004c0.32,0.34,0.62,0.68,0.92,1.02c1.07,1.22,2.1,2.46,3.089,3.739
		C257.66,181.389,264.618,200.125,264.618,220.471z"/>
	<path style="fill:#00A5FF;" d="M445.781,310.585c-8.282,0-14.997-6.715-14.997-14.997v-77.878c0-8.282,6.715-14.997,14.997-14.997
		s14.997,6.715,14.997,14.997v77.878C460.778,303.871,454.064,310.585,445.781,310.585z"/>
</g>
<path style="fill:#006DF3;" d="M264.618,220.471c0,48.391-39.362,87.753-87.753,87.753c-22.086,0-42.282-8.198-57.719-21.706
	l122.846-124.786c0.32,0.34,0.62,0.68,0.92,1.02c1.07,1.22,2.1,2.46,3.089,3.739C257.66,181.389,264.618,200.125,264.618,220.471z"
	/>
<path style="fill:#494949;" d="M384.025,467.723c-2.44,5.679-7.968,9.078-13.777,9.078c-1.98,0-3.989-0.39-5.919-1.22l-0.19-0.08
	c-34.323-14.717-70.676-22.186-108.029-22.186H256v-29.994h0.11c41.452,0,81.774,8.278,119.867,24.615l0.2,0.08
	C383.785,451.286,387.304,460.114,384.025,467.723z"/>
<g>
</g>
<g>
</g>
<g>
</g>
<g>
</g>
<g>
</g>
<g>
</g>
<g>
</g>
<g>
</g>
<g>
</g>
<g>
</g>
<g>
</g>
<g>
</g>
<g>
</g>
<g>
</g>
<g>
</g>
</svg>
