<svg id="Capa_1" enable-background="new 0 0 514.099 514.099" height="512" viewBox="0 0 514.099 514.099" width="512" xmlns="http://www.w3.org/2000/svg"><g id="XMLID_114_"><path id="XMLID_289_" d="m282.294 61.489h197.479v152.271h-197.479z" fill="#f93"/><path id="XMLID_3630_" d="m363.297 112.551c-12.661 0-24.022 5.676-31.671 14.617-7.649-8.941-19.01-14.617-31.671-14.617-4.811 0-9.53.815-14.029 2.423l-6.634 2.371.003 99.414h78.31l32.682-29.845c9.334-7.933 14.682-19.492 14.682-31.75v-.942c-.001-22.977-18.695-41.671-41.672-41.671z" fill="#b32453"/><path id="XMLID_3707_" d="m296.294 206.759v-199.497h-296.294v244.668h110.254l37.893 62.41 37.893-62.41h38.766z" fill="#feffee"/><path id="XMLID_3976_" d="m148.147 7.262v307.078l37.893-62.41h38.766l71.488-45.171v-199.497z" fill="#fec"/><path id="XMLID_3641_" d="m217.806 199.759v244.668h110.254l37.892 62.41 37.893-62.41h110.254v-244.668z" fill="#ffdac0"/><path id="XMLID_41_" d="m365.952 199.759v307.078l37.893-62.41h110.254v-244.668z" fill="#fc6"/><g fill="#f53"><path id="XMLID_3348_" d="m179.818 69.051c-12.661 0-24.022 5.676-31.671 14.618-7.649-8.941-19.01-14.618-31.671-14.618-22.978 0-41.671 18.694-41.671 41.671v.942c0 12.33 5.412 23.954 14.848 31.89l58.495 49.201 58.495-49.201c9.436-7.937 14.848-19.56 14.848-31.89v-.942c-.002-22.977-18.696-41.671-41.673-41.671z"/><path id="XMLID_288_" d="m397.624 261.548c-12.661 0-24.022 5.677-31.671 14.618-7.649-8.941-19.01-14.618-31.671-14.618-22.978 0-41.671 18.694-41.671 41.671v.942c0 12.33 5.412 23.954 14.847 31.89l58.495 49.201 58.495-49.201c9.436-7.937 14.848-19.56 14.848-31.89v-.942c-.002-22.977-18.695-41.671-41.672-41.671z"/><path id="XMLID_3667_" d="m129.255 369.658c-12.662 0-24.022 5.676-31.671 14.617-7.649-8.941-19.01-14.617-31.671-14.617-22.978 0-41.671 18.693-41.671 41.671v.942c0 12.33 5.412 23.954 14.847 31.89l58.495 49.201 58.495-49.201c9.436-7.937 14.848-19.56 14.848-31.89v-.942c-.001-22.977-18.695-41.671-41.672-41.671z"/></g><path id="XMLID_238_" d="m397.624 261.548c-12.661 0-24.022 5.677-31.671 14.618v109.086l58.495-49.201c9.436-7.937 14.848-19.56 14.848-31.89v-.942c-.002-22.977-18.695-41.671-41.672-41.671z" fill="#ff0059"/><path id="XMLID_121_" d="m179.818 69.051c-12.661 0-24.022 5.676-31.671 14.618v109.086l58.495-49.201c9.436-7.937 14.848-19.56 14.848-31.89v-.942c-.001-22.977-18.695-41.671-41.672-41.671z" fill="#ff0059"/><path id="XMLID_4285_" d="m129.255 369.658c-12.662 0-24.022 5.676-31.671 14.617v109.087l58.495-49.201c9.436-7.937 14.848-19.56 14.848-31.89v-.942c-.001-22.977-18.695-41.671-41.672-41.671z" fill="#ff0059"/></g></svg>